<svg width="18" height="21" viewBox="0 0 18 21" fill="none" xmlns="http://www.w3.org/2000/svg">
<path opacity="0.5" fill-rule="evenodd" clip-rule="evenodd" d="M16.6953 14.1562C17.0339 14.5729 17.3008 14.944 17.4961 15.2695C17.6914 15.5951 17.711 15.9206 17.5547 16.2461C17.3985 16.5716 17.1446 16.7604 16.793 16.8125C16.4414 16.8646 16.168 16.8906 15.9727 16.8906H12.3203C12.3203 17.8151 11.9948 18.6029 11.3438 19.2539C10.6927 19.905 9.90497 20.2305 8.98049 20.2305C8.056 20.2305 7.26825 19.905 6.61721 19.2539C5.96616 18.6029 5.64064 17.8151 5.64064 16.8906H2.06643C1.76695 16.8906 1.4577 16.8548 1.13869 16.7832C0.819679 16.7116 0.588562 16.5326 0.445332 16.2461C0.289081 15.9206 0.302102 15.5853 0.484394 15.2402C0.666687 14.8952 0.91408 14.5143 1.22658 14.0977C1.57815 13.6419 1.96226 13.1244 2.37893 12.5449C2.79559 11.9655 3.00393 11.3633 3.00393 10.7383V6.65625C3.00393 5.77083 3.15692 4.94076 3.46291 4.16602C3.7689 3.39127 4.18882 2.7142 4.72268 2.13477C5.25653 1.55534 5.88804 1.09961 6.61721 0.767578C7.34638 0.435545 8.12762 0.269531 8.96096 0.269531C9.80731 0.269531 10.5951 0.435545 11.3242 0.767578C12.0534 1.09961 12.6882 1.55534 13.2285 2.13477C13.7689 2.7142 14.1921 3.39127 14.4981 4.16602C14.8041 4.94076 14.9571 5.77083 14.9571 6.65625V10.7383C14.9571 11.3763 15.1556 11.9948 15.5528 12.5938C15.9499 13.1927 16.3307 13.7135 16.6953 14.1562ZM8.98049 18.9219C9.54039 18.9219 10.0189 18.7233 10.416 18.3262C10.8132 17.929 11.0117 17.4505 11.0117 16.8906H6.94924C6.94924 17.4505 7.1478 17.929 7.54494 18.3262C7.94208 18.7233 8.42059 18.9219 8.98049 18.9219ZM16.1094 15.5625C16.0443 15.4714 15.9727 15.377 15.8946 15.2793C15.8164 15.1816 15.7383 15.0872 15.6602 14.9961C15.2305 14.4753 14.7845 13.8535 14.3223 13.1309C13.86 12.4082 13.6289 11.6107 13.6289 10.7383V6.65625C13.6289 5.95312 13.5085 5.29558 13.2676 4.68359C13.0267 4.07161 12.6979 3.53776 12.2813 3.08203C11.8646 2.6263 11.3731 2.26498 10.8067 1.99805C10.2403 1.73112 9.62502 1.59766 8.96096 1.59766C8.30991 1.59766 7.70119 1.73112 7.13479 1.99805C6.56838 2.26498 6.07684 2.6263 5.66018 3.08203C5.24351 3.53776 4.91799 4.07161 4.68361 4.68359C4.44924 5.29558 4.33205 5.95312 4.33205 6.65625V10.7383C4.33205 11.5846 4.08791 12.3626 3.59963 13.0723C3.11135 13.7819 2.67841 14.3906 2.3008 14.8984C2.22268 15.0026 2.1413 15.1133 2.05666 15.2305C1.97202 15.3477 1.89716 15.4583 1.83205 15.5625H16.1094Z" fill="#243B6B"/>
</svg>
