<svg width="20" height="21" viewBox="0 0 20 21" fill="none" xmlns="http://www.w3.org/2000/svg">
<path opacity="0.5" fill-rule="evenodd" clip-rule="evenodd" d="M10 0.25C11.3802 0.25 12.679 0.510414 13.8965 1.03125C15.1139 1.55209 16.1751 2.26497 17.0801 3.16992C17.985 4.07487 18.6979 5.13606 19.2188 6.35352C19.7396 7.57097 20 8.86978 20 10.25C20 11.6302 19.7396 12.929 19.2188 14.1465C18.6979 15.3639 17.985 16.4251 17.0801 17.3301C16.1751 18.235 15.1139 18.9479 13.8965 19.4688C12.679 19.9896 11.3802 20.25 10 20.25C8.61978 20.25 7.32097 19.9896 6.10352 19.4688C4.88606 18.9479 3.82487 18.235 2.91992 17.3301C2.01497 16.4251 1.30209 15.3639 0.78125 14.1465C0.260414 12.929 0 11.6302 0 10.25C0 8.86978 0.260414 7.57097 0.78125 6.35352C1.30209 5.13606 2.01497 4.07487 2.91992 3.16992C3.82487 2.26497 4.88606 1.55209 6.10352 1.03125C7.32097 0.510414 8.61978 0.25 10 0.25ZM10 19.0195C11.2109 19.0195 12.347 18.7884 13.4082 18.3262C14.4694 17.8639 15.3939 17.2357 16.1816 16.4414C16.9694 15.6471 17.5944 14.7194 18.0566 13.6582C18.5189 12.597 18.75 11.4609 18.75 10.25C18.75 9.03906 18.5189 7.903 18.0566 6.8418C17.5944 5.78059 16.9694 4.85612 16.1816 4.06836C15.3939 3.2806 14.4694 2.6556 13.4082 2.19336C12.347 1.73112 11.2109 1.5 10 1.5C8.78906 1.5 7.653 1.73112 6.5918 2.19336C5.53059 2.6556 4.60612 3.2806 3.81836 4.06836C3.0306 4.85612 2.4056 5.78059 1.94336 6.8418C1.48112 7.903 1.25 9.03906 1.25 10.25C1.25 11.4609 1.48112 12.597 1.94336 13.6582C2.4056 14.7194 3.0306 15.6471 3.81836 16.4414C4.60612 17.2357 5.53059 17.8639 6.5918 18.3262C7.653 18.7884 8.78906 19.0195 10 19.0195ZM10.625 9.99609L13.5742 12.9453C13.6914 13.0625 13.75 13.209 13.75 13.3848C13.75 13.5605 13.6914 13.707 13.5742 13.8242C13.457 13.9544 13.3105 14.0195 13.1348 14.0195C12.959 14.0195 12.8125 13.9544 12.6953 13.8242L9.58984 10.7383C9.58984 10.7253 9.58659 10.7155 9.58008 10.709L9.57031 10.6992C9.50521 10.6471 9.45638 10.582 9.42383 10.5039C9.39128 10.4258 9.375 10.3411 9.375 10.25V4C9.375 3.83073 9.43685 3.68425 9.56055 3.56055C9.68425 3.43685 9.83073 3.375 10 3.375C10.1693 3.375 10.3158 3.43685 10.4395 3.56055C10.5632 3.68425 10.625 3.83073 10.625 4V9.99609Z" fill="#243B6B"/>
</svg>
