<svg width="20" height="13" viewBox="0 0 20 13" fill="none" xmlns="http://www.w3.org/2000/svg">
<path fill-rule="evenodd" clip-rule="evenodd" d="M1.875 5H0.625C0.455728 5 0.309245 5.06185 0.185547 5.18555C0.0618483 5.30925 0 5.45573 0 5.625V6.875C0 7.04427 0.0618483 7.19075 0.185547 7.31445C0.309245 7.43815 0.455728 7.5 0.625 7.5H1.875C2.04427 7.5 2.19075 7.43815 2.31445 7.31445C2.43815 7.19075 2.5 7.04427 2.5 6.875V5.625C2.5 5.45573 2.43815 5.30925 2.31445 5.18555C2.19075 5.06185 2.04427 5 1.875 5ZM19.375 5.625H6.25C6.08073 5.625 5.93425 5.68685 5.81055 5.81055C5.68685 5.93425 5.625 6.08073 5.625 6.25C5.625 6.41927 5.68685 6.56575 5.81055 6.68945C5.93425 6.81315 6.08073 6.875 6.25 6.875H19.375C19.5443 6.875 19.6908 6.81315 19.8145 6.68945C19.9382 6.56575 20 6.41927 20 6.25C20 6.08073 19.9382 5.93425 19.8145 5.81055C19.6908 5.68685 19.5443 5.625 19.375 5.625ZM1.875 10H0.625C0.455728 10 0.309245 10.0618 0.185547 10.1855C0.0618483 10.3092 0 10.4557 0 10.625V11.875C0 12.0443 0.0618483 12.1908 0.185547 12.3145C0.309245 12.4382 0.455728 12.5 0.625 12.5H1.875C2.04427 12.5 2.19075 12.4382 2.31445 12.3145C2.43815 12.1908 2.5 12.0443 2.5 11.875V10.625C2.5 10.4557 2.43815 10.3092 2.31445 10.1855C2.19075 10.0618 2.04427 10 1.875 10ZM19.375 10.625H6.25C6.08073 10.625 5.93425 10.6868 5.81055 10.8105C5.68685 10.9342 5.625 11.0807 5.625 11.25C5.625 11.4193 5.68685 11.5658 5.81055 11.6895C5.93425 11.8132 6.08073 11.875 6.25 11.875H19.375C19.5443 11.875 19.6908 11.8132 19.8145 11.6895C19.9382 11.5658 20 11.4193 20 11.25C20 11.0807 19.9382 10.9342 19.8145 10.8105C19.6908 10.6868 19.5443 10.625 19.375 10.625ZM1.875 0H0.625C0.455728 0 0.309245 0.0618483 0.185547 0.185547C0.0618483 0.309245 0 0.455728 0 0.625V1.875C0 2.04427 0.0618483 2.19075 0.185547 2.31445C0.309245 2.43815 0.455728 2.5 0.625 2.5H1.875C2.04427 2.5 2.19075 2.43815 2.31445 2.31445C2.43815 2.19075 2.5 2.04427 2.5 1.875V0.625C2.5 0.455728 2.43815 0.309245 2.31445 0.185547C2.19075 0.0618483 2.04427 0 1.875 0ZM6.25 1.875H19.375C19.5443 1.875 19.6908 1.81315 19.8145 1.68945C19.9382 1.56575 20 1.41927 20 1.25C20 1.08073 19.9382 0.934245 19.8145 0.810547C19.6908 0.686848 19.5443 0.625 19.375 0.625H6.25C6.08073 0.625 5.93425 0.686848 5.81055 0.810547C5.68685 0.934245 5.625 1.08073 5.625 1.25C5.625 1.41927 5.68685 1.56575 5.81055 1.68945C5.93425 1.81315 6.08073 1.875 6.25 1.875Z" fill="#919DB5"/>
</svg>
