<svg width="20" height="21" viewBox="0 0 20 21" fill="none" xmlns="http://www.w3.org/2000/svg">
<path opacity="0.5" fill-rule="evenodd" clip-rule="evenodd" d="M10 1.5C9.46614 1.5 8.9388 1.60091 8.41797 1.80273C7.89713 2.00456 7.42839 2.26172 7.01172 2.57422C6.59505 2.88672 6.25977 3.22526 6.00586 3.58984C5.75195 3.95443 5.625 4.29948 5.625 4.625V7.75C5.625 8.36198 5.77799 9.14322 6.08398 10.0938C6.38998 11.0443 6.86849 11.7799 7.51953 12.3008C7.6888 12.431 7.81575 12.597 7.90039 12.7988C7.98503 13.0007 8.01432 13.2122 7.98828 13.4336C7.94922 13.6419 7.86784 13.834 7.74414 14.0098C7.62044 14.1855 7.46094 14.319 7.26562 14.4102L1.77734 17.0078C1.69922 17.0339 1.5918 17.0957 1.45508 17.1934C1.31836 17.291 1.25 17.4701 1.25 17.7305V19L18.7305 18.9805V17.7695C18.7305 17.431 18.6491 17.2194 18.4863 17.1348C18.3236 17.0501 18.2357 17.0078 18.2227 17.0078L12.7734 14.4297C12.5781 14.3385 12.4154 14.2051 12.2852 14.0293C12.1549 13.8535 12.0768 13.6549 12.0508 13.4336C12.0247 13.2122 12.054 13.0007 12.1387 12.7988C12.2233 12.597 12.3503 12.431 12.5195 12.3008C13.1966 11.7799 13.6751 11.041 13.9551 10.084C14.235 9.12695 14.375 8.34896 14.375 7.75V4.625C14.375 4.28646 14.2448 3.9349 13.9844 3.57031C13.724 3.20573 13.3887 2.87044 12.9785 2.56445C12.5684 2.25846 12.0996 2.00456 11.5723 1.80273C11.0449 1.60091 10.5208 1.5 10 1.5ZM10 0.25C10.6901 0.25 11.3704 0.380207 12.041 0.640625C12.7116 0.901043 13.3105 1.23958 13.8379 1.65625C14.3652 2.07292 14.7949 2.54166 15.127 3.0625C15.459 3.58334 15.625 4.10416 15.625 4.625V7.75C15.625 8.12761 15.5859 8.5638 15.5078 9.05859C15.4297 9.55339 15.2995 10.0579 15.1172 10.5723C14.9349 11.0866 14.694 11.5814 14.3945 12.0566C14.0951 12.5319 13.7305 12.9388 13.3008 13.2773L18.75 15.875L19.3652 16.2168C19.7754 16.4447 19.9805 16.7409 19.9805 17.1055V19C19.9805 19.3385 19.86 19.6283 19.6191 19.8691C19.3783 20.11 19.0885 20.2305 18.75 20.2305H1.25C0.898436 20.2305 0.602215 20.11 0.361328 19.8691C0.120442 19.6283 0 19.3385 0 19V17.1055C0 16.7669 0.208331 16.4772 0.625 16.2363L1.25 15.875L6.73828 13.2773C6.29557 12.9258 5.92448 12.5026 5.625 12.0078C5.32552 11.513 5.08138 11.0085 4.89258 10.4941C4.70377 9.97982 4.57031 9.47852 4.49219 8.99023C4.41406 8.50195 4.375 8.08854 4.375 7.75V4.625C4.375 4.10416 4.53776 3.58334 4.86328 3.0625C5.1888 2.54166 5.61523 2.07292 6.14258 1.65625C6.66992 1.23958 7.27213 0.901043 7.94922 0.640625C8.62631 0.380207 9.30989 0.25 10 0.25Z" fill="#243B6B"/>
</svg>
